# xmcd
#
# Track frame offsets:
#	150
#	23867
#	43380
#	65842
#	82670
#	103572
#	123165
#	148117
#	182210
#	205815
#	225807
#	256192
#	274487
#	291995
#
# Disc length: 4094 seconds
#
# Revision: 1
# Processed by: cddbd v1.5.1PL0 Copyright (c) Steve Scherf et al.
# Submitted via: CDex 1.50Beta5
#
DISCID=cb0ffc0e
DTITLE=Various Artist - Smooth Jazz [Hindsight]
DYEAR=1999
DGENRE=
TTITLE0=Lorez Alexandria/The Best Is Yet to Come
TTITLE1=Al Hirt/I Can't Get Started
TTITLE2=Nancy Wilson/The Nearness of You
TTITLE3=Mel Torm将ア/Day In - Day Out
TTITLE4=Sarah Vaughan/How Long Has This Been Going On?
TTITLE5=Buddy DeFranco/I Wanna Be Loved
TTITLE6=Helen O'Connell/Witchcraft
TTITLE7=Carmen Mc Rae/Just in Time
TTITLE8=Bobby Troup/Lulu's Back in Town
TTITLE9=Irene Kral/It's a Wonderful World
TTITLE10=Gerry Mulligan/My Funny Valentine
TTITLE11=The Hi-Lo's/You Must Have Been a Beautiful Baby
TTITLE12=Jo Ann Greer - Les Brown/Love Me or Leave Me
TTITLE13=Harry James/More Than You Know
EXTD=
EXTT0=
EXTT1=
EXTT2=
EXTT3=
EXTT4=
EXTT5=
EXTT6=
EXTT7=
EXTT8=
EXTT9=
EXTT10=
EXTT11=
EXTT12=
EXTT13=
PLAYORDER=
